<?xml version="1.0" standalone="no"?>
<!DOCTYPE svg PUBLIC "-//W3C//DTD SVG 20010904//EN"
 "http://www.w3.org/TR/2001/REC-SVG-20010904/DTD/svg10.dtd">
<svg version="1.0" xmlns="http://www.w3.org/2000/svg"
 width="100.000000pt" height="100.000000pt" viewBox="0 0 100.000000 100.000000"
 preserveAspectRatio="xMidYMid meet">
<metadata>
Created by potrace 1.11, written by Peter Selinger 2001-2013
</metadata>
<g transform="translate(0.000000,100.000000) scale(0.100000,-0.100000)"
fill="#000000" stroke="none">
<path d="M184 495 l0 -245 43 0 43 0 2 187 3 187 114 -187 115 -188 55 3 56 3
0 243 0 242 -42 0 -43 0 -1 -67 c0 -38 -1 -119 -1 -180 0 -62 -1 -113 -3 -113
-1 0 -36 53 -76 118 -40 64 -90 145 -112 180 l-40 62 -56 0 -56 0 -1 -245z"/>
<path d="M718 738 c0 -2 -2 -112 -3 -245 l-2 -243 44 0 43 0 0 245 0 245 -40
0 c-22 0 -41 -1 -42 -2z"/>
</g>
</svg>
